<?xml version="1.0" encoding="UTF-8"?>
<svg id="Layer_2" data-name="Layer 2" xmlns="http://www.w3.org/2000/svg" viewBox="0 0 599.09 117.4">
  <defs>
    <style>
      .cls-1 {
        fill: none;
      }

      .cls-2 {
        fill: #0867df;
      }

      .cls-3 {
        fill: #f7f7f7;
      }
    </style>
  </defs>
  <g id="Layer_1-2" data-name="Layer 1">
    <path class="cls-2" d="M78.29,41.26c0-1.36-.54-2.66-1.5-3.62l-18.07-18.07L40.64,1.5c-.96-.96-2.26-1.5-3.62-1.5H5.11C2.29,0,0,2.29,0,5.11v28.92c0,2.82,2.29,5.11,5.11,5.11h28.92c2.82,0,5.11,2.29,5.11,5.11v20c0,7.73-6.27,14-14,14H5.15c-2.82,0-5.11,2.29-5.11,5.11v28.92c0,2.82,2.29,5.11,5.11,5.11h28.92c2.82,0,5.11-2.29,5.11-5.11v-20c0-7.73,6.27-14,14-14h20c2.82,0,5.11-2.29,5.11-5.11v-31.91Z"/>
    <g>
      <rect class="cls-1" x="104.85" y="31.5" width="494.23" height="54.4"/>
      <path class="cls-3" d="M120.05,85.1h-12V31.5h12v53.6ZM136.05,70.3h-23.84v-10.8h22.56c3.36,0,5.83-.6,7.4-1.8,1.57-1.2,2.36-3.48,2.36-6.84s-.79-5.49-2.36-6.72c-1.57-1.23-4.04-1.84-7.4-1.84h-22.56v-10.8h23.84c4.16,0,7.76.76,10.8,2.28,3.04,1.52,5.4,3.72,7.08,6.6,1.68,2.88,2.52,6.37,2.52,10.48s-.84,7.61-2.52,10.52c-1.68,2.91-4.04,5.12-7.08,6.64-3.04,1.52-6.64,2.28-10.8,2.28Z"/>
      <path class="cls-3" d="M172.77,85.1h-15.68l20.88-26.48v-.88l-20.88-26.24h15.68l15.04,19.12h.88l14.48-19.12h15.68l-20.8,26.48v.88l20.8,26.24h-15.68l-14.96-19.36h-.88l-14.56,19.36Z"/>
      <path class="cls-3" d="M233.65,85.1h-12V31.5h12v53.6ZM265.57,85.1h-40.56v-10.8h40.56v10.8Z"/>
      <path class="cls-3" d="M305.09,85.9c-5.23,0-9.56-.77-13-2.32-3.44-1.55-5.99-3.67-7.64-6.36-1.65-2.69-2.48-5.72-2.48-9.08v-.48h5.76v1.04c0,2.56.57,4.72,1.72,6.48s3,3.09,5.56,4c2.56.91,5.92,1.36,10.08,1.36,3.63,0,6.57-.32,8.84-.96,2.27-.64,3.96-1.64,5.08-3,1.12-1.36,1.68-3.05,1.68-5.08,0-2.99-.92-5.16-2.76-6.52s-4.73-2.44-8.68-3.24l-11.36-2.16c-2.88-.59-5.51-1.41-7.88-2.48-2.37-1.07-4.27-2.55-5.68-4.44-1.41-1.89-2.12-4.33-2.12-7.32,0-1.81.41-3.59,1.24-5.32.83-1.73,2.09-3.31,3.8-4.72,1.71-1.41,3.93-2.53,6.68-3.36,2.75-.83,6.04-1.24,9.88-1.24,5.07,0,9.2.8,12.4,2.4s5.57,3.75,7.12,6.44c1.55,2.69,2.32,5.67,2.32,8.92v.48h-5.76v-.96c0-2.56-.56-4.73-1.68-6.52-1.12-1.79-2.88-3.13-5.28-4.04-2.4-.91-5.57-1.36-9.52-1.36-3.52,0-6.43.33-8.72,1-2.29.67-3.99,1.65-5.08,2.96-1.09,1.31-1.64,2.95-1.64,4.92s.41,3.57,1.24,4.8c.83,1.23,2.08,2.19,3.76,2.88,1.68.69,3.83,1.33,6.44,1.92l11.28,2.24c3.2.59,5.97,1.47,8.32,2.64,2.35,1.17,4.17,2.71,5.48,4.6,1.31,1.89,1.96,4.23,1.96,7,0,2.51-.75,4.91-2.24,7.2-1.49,2.29-3.81,4.15-6.96,5.56-3.15,1.41-7.2,2.12-12.16,2.12Z"/>
      <path class="cls-3" d="M350.37,85.9c-3.73,0-6.84-.79-9.32-2.36-2.48-1.57-4.35-3.67-5.6-6.28-1.25-2.61-1.88-5.47-1.88-8.56v-23.12h5.68v22.24c0,4.05,1.04,7.23,3.12,9.52,2.08,2.29,5.41,3.44,10,3.44,4.85,0,8.52-1.4,11-4.2,2.48-2.8,3.72-6.73,3.72-11.8l1.52-.08v8.08h-1.36c-.43,2.24-1.35,4.35-2.76,6.32-1.41,1.97-3.29,3.6-5.64,4.88s-5.17,1.92-8.48,1.92ZM372.77,85.1h-5.12v-12.48l-.56-.4v-26.64h5.68v39.52Z"/>
      <path class="cls-3" d="M387.97,98.7h-5.68v-53.12h5.12v12.96l.56,1.04v39.12ZM404.93,85.9c-4.32,0-7.99-1.12-11-3.36-3.02-2.24-4.97-5.25-5.88-9.04h-1.6v-7.44h1.52c0,3.09.64,5.73,1.92,7.92,1.28,2.19,3.08,3.85,5.4,5,2.32,1.15,5,1.72,8.04,1.72s5.87-.49,8.16-1.48c2.29-.99,4.07-2.59,5.32-4.8,1.25-2.21,1.88-5.24,1.88-9.08s-.64-6.87-1.92-9.08c-1.28-2.21-3.05-3.8-5.32-4.76-2.27-.96-4.89-1.44-7.88-1.44-4.91,0-8.73,1.33-11.48,4-2.75,2.67-4.12,6.43-4.12,11.28h-1.52l-.32-8.64h1.92c.91-3.57,2.81-6.45,5.72-8.64,2.91-2.19,6.68-3.28,11.32-3.28,4.11,0,7.6.88,10.48,2.64,2.88,1.76,5.08,4.19,6.6,7.28,1.52,3.09,2.28,6.64,2.28,10.64s-.75,7.55-2.24,10.64c-1.49,3.09-3.69,5.52-6.6,7.28-2.91,1.76-6.47,2.64-10.68,2.64Z"/>
      <path class="cls-3" d="M437.09,98.7h-5.68v-53.12h5.12v12.96l.56,1.04v39.12ZM454.05,85.9c-4.32,0-7.99-1.12-11-3.36-3.01-2.24-4.97-5.25-5.88-9.04h-1.6v-7.44h1.52c0,3.09.64,5.73,1.92,7.92,1.28,2.19,3.08,3.85,5.4,5,2.32,1.15,5,1.72,8.04,1.72s5.87-.49,8.16-1.48c2.29-.99,4.07-2.59,5.32-4.8,1.25-2.21,1.88-5.24,1.88-9.08s-.64-6.87-1.92-9.08c-1.28-2.21-3.05-3.8-5.32-4.76s-4.89-1.44-7.88-1.44c-4.91,0-8.73,1.33-11.48,4-2.75,2.67-4.12,6.43-4.12,11.28h-1.52l-.32-8.64h1.92c.91-3.57,2.81-6.45,5.72-8.64,2.91-2.19,6.68-3.28,11.32-3.28,4.11,0,7.6.88,10.48,2.64,2.88,1.76,5.08,4.19,6.6,7.28,1.52,3.09,2.28,6.64,2.28,10.64s-.75,7.55-2.24,10.64c-1.49,3.09-3.69,5.52-6.6,7.28s-6.47,2.64-10.68,2.64Z"/>
      <path class="cls-3" d="M499.89,85.9c-4.27,0-8.01-.88-11.24-2.64s-5.73-4.19-7.52-7.28c-1.79-3.09-2.68-6.64-2.68-10.64s.89-7.55,2.68-10.64c1.79-3.09,4.29-5.52,7.52-7.28,3.23-1.76,6.97-2.64,11.24-2.64s8.16.88,11.36,2.64c3.2,1.76,5.69,4.19,7.48,7.28,1.79,3.09,2.68,6.64,2.68,10.64s-.89,7.55-2.68,10.64c-1.79,3.09-4.28,5.52-7.48,7.28-3.2,1.76-6.99,2.64-11.36,2.64ZM499.89,80.78c5.49,0,9.52-1.37,12.08-4.12,2.56-2.75,3.84-6.52,3.84-11.32s-1.28-8.57-3.84-11.32c-2.56-2.75-6.59-4.12-12.08-4.12s-9.37,1.37-11.96,4.12c-2.59,2.75-3.88,6.52-3.88,11.32s1.29,8.57,3.88,11.32c2.59,2.75,6.57,4.12,11.96,4.12Z"/>
      <path class="cls-3" d="M534.61,85.1h-5.68v-39.52h5.12v11.12l.56.4v28ZM534.61,63.66h-1.6v-7.28h1.44c.37-2.13,1.13-4.08,2.28-5.84,1.15-1.76,2.68-3.16,4.6-4.2s4.27-1.56,7.04-1.56c3.04,0,5.53.67,7.48,2,1.95,1.33,3.37,3.07,4.28,5.2.91,2.13,1.36,4.43,1.36,6.88v3.92h-5.68v-3.04c0-3.36-.75-5.87-2.24-7.52-1.49-1.65-3.97-2.48-7.44-2.48-4,0-6.92,1.2-8.76,3.6-1.84,2.4-2.76,5.84-2.76,10.32Z"/>
      <path class="cls-3" d="M592.29,50.46h-28.48v-4.88h28.48v4.88ZM592.29,85.1h-8.56c-3.95,0-7.08-.93-9.4-2.8-2.32-1.87-3.48-5.12-3.48-9.76v-36.4h5.76v36.72c0,2.77.69,4.64,2.08,5.6,1.38.96,3.52,1.44,6.4,1.44h7.2v5.2Z"/>
    </g>
  </g>
</svg>