<?xml version="1.0" encoding="UTF-8"?>
<svg id="Layer_2" data-name="Layer 2" xmlns="http://www.w3.org/2000/svg" viewBox="0 0 865.35 117.4">
  <defs>
    <style>
      .cls-1 {
        fill: none;
      }

      .cls-2 {
        fill: #19171a;
      }

      .cls-3 {
        fill: #0867df;
      }
    </style>
  </defs>
  <g id="Layer_1-2" data-name="Layer 1">
    <path class="cls-3" d="M78.29,41.26c0-1.36-.54-2.66-1.5-3.62l-18.07-18.07L40.64,1.5c-.96-.96-2.26-1.5-3.62-1.5H5.11C2.29,0,0,2.29,0,5.11v28.92c0,2.82,2.29,5.11,5.11,5.11h28.92c2.82,0,5.11,2.29,5.11,5.11v20c0,7.73-6.27,14-14,14H5.15c-2.82,0-5.11,2.29-5.11,5.11v28.92c0,2.82,2.29,5.11,5.11,5.11h28.92c2.82,0,5.11-2.29,5.11-5.11v-20c0-7.73,6.27-14,14-14h20c2.82,0,5.11-2.29,5.11-5.11v-31.91Z"/>
    <g>
      <rect class="cls-1" x="104.85" y="31.5" width="760.5" height="54.4"/>
      <path class="cls-2" d="M120.05,85.1h-12V31.5h12v53.6ZM136.05,70.3h-23.84v-10.8h22.56c3.36,0,5.83-.6,7.4-1.8,1.57-1.2,2.36-3.48,2.36-6.84s-.79-5.49-2.36-6.72c-1.57-1.23-4.04-1.84-7.4-1.84h-22.56v-10.8h23.84c4.16,0,7.76.76,10.8,2.28,3.04,1.52,5.4,3.72,7.08,6.6,1.68,2.88,2.52,6.37,2.52,10.48s-.84,7.61-2.52,10.52c-1.68,2.91-4.04,5.12-7.08,6.64-3.04,1.52-6.64,2.28-10.8,2.28Z"/>
      <path class="cls-2" d="M172.69,40.94h-12v-9.44h12v9.44ZM172.69,85.1h-12v-40.08h12v40.08Z"/>
      <path class="cls-2" d="M189.97,85.1h-14.48l16-19.6v-.64l-16-19.84h14.64l10.64,13.52h.64l10.32-13.52h14.48l-16,19.6v.72l16,19.76h-14.64l-10.64-13.44h-.64l-10.32,13.44Z"/>
      <path class="cls-2" d="M250.37,85.9c-4.43,0-8.35-.75-11.76-2.24-3.41-1.49-6.05-3.79-7.92-6.88-1.87-3.09-2.8-6.99-2.8-11.68,0-4.27.93-7.96,2.8-11.08s4.47-5.53,7.8-7.24c3.33-1.71,7.21-2.56,11.64-2.56s8.2.75,11.48,2.24c3.28,1.49,5.83,3.69,7.64,6.6,1.81,2.91,2.72,6.44,2.72,10.6,0,.69-.03,1.33-.08,1.92-.05.59-.13,1.23-.24,1.92h-36v-6.32h27.52l-2.72,3.92v-2.96c0-3.04-.83-5.23-2.48-6.56-1.65-1.33-4.35-2-8.08-2-4.05,0-6.88.79-8.48,2.36-1.6,1.57-2.4,4.07-2.4,7.48v3.04c0,3.41.8,5.91,2.4,7.48,1.6,1.57,4.45,2.36,8.56,2.36,3.52,0,6-.45,7.44-1.36,1.44-.91,2.16-2.21,2.16-3.92v-.8h12v.88c0,2.88-.88,5.44-2.64,7.68-1.76,2.24-4.23,3.99-7.4,5.24-3.17,1.25-6.89,1.88-11.16,1.88Z"/>
      <path class="cls-2" d="M289.09,85.1h-12V31.5h12v53.6Z"/>
      <path class="cls-2" d="M330.93,85.1h-17.12l-22.24-53.6h14.48l16.08,41.44h.8l15.84-41.44h14.4l-22.24,53.6Z"/>
      <path class="cls-2" d="M377.01,85.9c-4.43,0-8.35-.75-11.76-2.24-3.41-1.49-6.05-3.79-7.92-6.88-1.87-3.09-2.8-6.99-2.8-11.68,0-4.27.93-7.96,2.8-11.08,1.87-3.12,4.47-5.53,7.8-7.24,3.33-1.71,7.21-2.56,11.64-2.56s8.2.75,11.48,2.24,5.83,3.69,7.64,6.6c1.81,2.91,2.72,6.44,2.72,10.6,0,.69-.03,1.33-.08,1.92s-.13,1.23-.24,1.92h-36v-6.32h27.52l-2.72,3.92v-2.96c0-3.04-.83-5.23-2.48-6.56-1.65-1.33-4.35-2-8.08-2-4.05,0-6.88.79-8.48,2.36-1.6,1.57-2.4,4.07-2.4,7.48v3.04c0,3.41.8,5.91,2.4,7.48,1.6,1.57,4.45,2.36,8.56,2.36,3.52,0,6-.45,7.44-1.36,1.44-.91,2.16-2.21,2.16-3.92v-.8h12v.88c0,2.88-.88,5.44-2.64,7.68-1.76,2.24-4.23,3.99-7.4,5.24-3.17,1.25-6.89,1.88-11.16,1.88Z"/>
      <path class="cls-2" d="M415.73,85.1h-12v-40.08h11.12v11.44l.88.4v28.24ZM415.73,61.9h-2.4v-6.24h2.24c.37-2.19,1.11-4.15,2.2-5.88,1.09-1.73,2.57-3.09,4.44-4.08,1.87-.99,4.13-1.48,6.8-1.48,3.04,0,5.48.63,7.32,1.88,1.84,1.25,3.19,2.93,4.04,5.04.85,2.11,1.28,4.47,1.28,7.08v6.64h-12v-4.16c0-2.24-.49-3.85-1.48-4.84-.99-.99-2.71-1.48-5.16-1.48-2.67,0-4.55.61-5.64,1.84-1.09,1.23-1.64,3.12-1.64,5.68Z"/>
      <path class="cls-2" d="M466.21,85.9c-6.72,0-11.89-1.27-15.52-3.8-3.63-2.53-5.44-6.12-5.44-10.76v-.24h12v.72c0,1.81.65,3.03,1.96,3.64s3.67.92,7.08.92c3.2,0,5.32-.28,6.36-.84,1.04-.56,1.56-1.43,1.56-2.6s-.4-1.91-1.2-2.36c-.8-.45-2.38-.84-4.72-1.16l-11.28-1.36c-4-.43-7.08-1.55-9.24-3.36-2.16-1.81-3.24-4.43-3.24-7.84,0-2.35.69-4.47,2.08-6.36,1.39-1.89,3.53-3.41,6.44-4.56,2.91-1.15,6.65-1.72,11.24-1.72s8.09.55,11.16,1.64c3.07,1.09,5.4,2.73,7,4.92,1.6,2.19,2.4,4.91,2.4,8.16v.24h-12v-.48c0-1.12-.23-2.04-.68-2.76-.46-.72-1.33-1.27-2.64-1.64-1.31-.37-3.19-.56-5.64-.56-2.99,0-4.99.28-6,.84-1.01.56-1.52,1.48-1.52,2.76,0,1.01.41,1.77,1.24,2.28.83.51,2.55.95,5.16,1.32l8.56,1.04c5.33.59,9.12,1.81,11.36,3.68,2.24,1.87,3.36,4.45,3.36,7.76,0,2.51-.8,4.69-2.4,6.56-1.6,1.87-3.87,3.32-6.8,4.36-2.93,1.04-6.48,1.56-10.64,1.56Z"/>
      <path class="cls-2" d="M512.21,85.9c-4.43,0-8.35-.75-11.76-2.24-3.41-1.49-6.05-3.79-7.92-6.88-1.87-3.09-2.8-6.99-2.8-11.68,0-4.27.93-7.96,2.8-11.08,1.87-3.12,4.47-5.53,7.8-7.24,3.33-1.71,7.21-2.56,11.64-2.56s8.2.75,11.48,2.24,5.83,3.69,7.64,6.6c1.81,2.91,2.72,6.44,2.72,10.6,0,.69-.03,1.33-.08,1.92s-.13,1.23-.24,1.92h-36v-6.32h27.52l-2.72,3.92v-2.96c0-3.04-.83-5.23-2.48-6.56-1.65-1.33-4.35-2-8.08-2-4.05,0-6.88.79-8.48,2.36-1.6,1.57-2.4,4.07-2.4,7.48v3.04c0,3.41.8,5.91,2.4,7.48,1.6,1.57,4.45,2.36,8.56,2.36,3.52,0,6-.45,7.44-1.36,1.44-.91,2.16-2.21,2.16-3.92v-.8h12v.88c0,2.88-.88,5.44-2.64,7.68-1.76,2.24-4.23,3.99-7.4,5.24-3.17,1.25-6.89,1.88-11.16,1.88Z"/>
      <path class="cls-2" d="M573.64,85.9c-5.23,0-9.56-.77-13-2.32-3.44-1.55-5.99-3.67-7.64-6.36-1.65-2.69-2.48-5.72-2.48-9.08v-.48h5.76v1.04c0,2.56.57,4.72,1.72,6.48,1.15,1.76,3,3.09,5.56,4,2.56.91,5.92,1.36,10.08,1.36,3.63,0,6.57-.32,8.84-.96,2.27-.64,3.96-1.64,5.08-3,1.12-1.36,1.68-3.05,1.68-5.08,0-2.99-.92-5.16-2.76-6.52-1.84-1.36-4.73-2.44-8.68-3.24l-11.36-2.16c-2.88-.59-5.51-1.41-7.88-2.48-2.37-1.07-4.27-2.55-5.68-4.44-1.41-1.89-2.12-4.33-2.12-7.32,0-1.81.41-3.59,1.24-5.32.83-1.73,2.09-3.31,3.8-4.72,1.71-1.41,3.93-2.53,6.68-3.36,2.75-.83,6.04-1.24,9.88-1.24,5.07,0,9.2.8,12.4,2.4,3.2,1.6,5.57,3.75,7.12,6.44,1.55,2.69,2.32,5.67,2.32,8.92v.48h-5.76v-.96c0-2.56-.56-4.73-1.68-6.52-1.12-1.79-2.88-3.13-5.28-4.04-2.4-.91-5.57-1.36-9.52-1.36-3.52,0-6.43.33-8.72,1-2.29.67-3.99,1.65-5.08,2.96-1.09,1.31-1.64,2.95-1.64,4.92s.41,3.57,1.24,4.8c.83,1.23,2.08,2.19,3.76,2.88,1.68.69,3.83,1.33,6.44,1.92l11.28,2.24c3.2.59,5.97,1.47,8.32,2.64s4.17,2.71,5.48,4.6c1.31,1.89,1.96,4.23,1.96,7,0,2.51-.75,4.91-2.24,7.2-1.49,2.29-3.81,4.15-6.96,5.56-3.15,1.41-7.2,2.12-12.16,2.12Z"/>
      <path class="cls-2" d="M618.93,85.9c-3.73,0-6.84-.79-9.32-2.36-2.48-1.57-4.35-3.67-5.6-6.28-1.25-2.61-1.88-5.47-1.88-8.56v-23.12h5.68v22.24c0,4.05,1.04,7.23,3.12,9.52,2.08,2.29,5.41,3.44,10,3.44,4.85,0,8.52-1.4,11-4.2,2.48-2.8,3.72-6.73,3.72-11.8l1.52-.08v8.08h-1.36c-.43,2.24-1.35,4.35-2.76,6.32-1.41,1.97-3.29,3.6-5.64,4.88s-5.17,1.92-8.48,1.92ZM641.32,85.1h-5.12v-12.48l-.56-.4v-26.64h5.68v39.52Z"/>
      <path class="cls-2" d="M656.52,98.7h-5.68v-53.12h5.12v12.96l.56,1.04v39.12ZM673.48,85.9c-4.32,0-7.99-1.12-11-3.36-3.02-2.24-4.97-5.25-5.88-9.04h-1.6v-7.44h1.52c0,3.09.64,5.73,1.92,7.92,1.28,2.19,3.08,3.85,5.4,5,2.32,1.15,5,1.72,8.04,1.72s5.87-.49,8.16-1.48c2.29-.99,4.07-2.59,5.32-4.8,1.25-2.21,1.88-5.24,1.88-9.08s-.64-6.87-1.92-9.08c-1.28-2.21-3.05-3.8-5.32-4.76-2.27-.96-4.89-1.44-7.88-1.44-4.91,0-8.73,1.33-11.48,4-2.75,2.67-4.12,6.43-4.12,11.28h-1.52l-.32-8.64h1.92c.91-3.57,2.81-6.45,5.72-8.64,2.91-2.19,6.68-3.28,11.32-3.28,4.11,0,7.6.88,10.48,2.64,2.88,1.76,5.08,4.19,6.6,7.28,1.52,3.09,2.28,6.64,2.28,10.64s-.75,7.55-2.24,10.64c-1.49,3.09-3.69,5.52-6.6,7.28-2.91,1.76-6.47,2.64-10.68,2.64Z"/>
      <path class="cls-2" d="M705.64,98.7h-5.68v-53.12h5.12v12.96l.56,1.04v39.12ZM722.6,85.9c-4.32,0-7.99-1.12-11-3.36-3.01-2.24-4.97-5.25-5.88-9.04h-1.6v-7.44h1.52c0,3.09.64,5.73,1.92,7.92,1.28,2.19,3.08,3.85,5.4,5,2.32,1.15,5,1.72,8.04,1.72s5.87-.49,8.16-1.48c2.29-.99,4.07-2.59,5.32-4.8,1.25-2.21,1.88-5.24,1.88-9.08s-.64-6.87-1.92-9.08c-1.28-2.21-3.05-3.8-5.32-4.76s-4.89-1.44-7.88-1.44c-4.91,0-8.73,1.33-11.48,4-2.75,2.67-4.12,6.43-4.12,11.28h-1.52l-.32-8.64h1.92c.91-3.57,2.81-6.45,5.72-8.64,2.91-2.19,6.68-3.28,11.32-3.28,4.11,0,7.6.88,10.48,2.64,2.88,1.76,5.08,4.19,6.6,7.28,1.52,3.09,2.28,6.64,2.28,10.64s-.75,7.55-2.24,10.64c-1.49,3.09-3.69,5.52-6.6,7.28s-6.47,2.64-10.68,2.64Z"/>
      <path class="cls-2" d="M768.44,85.9c-4.27,0-8.01-.88-11.24-2.64s-5.73-4.19-7.52-7.28c-1.79-3.09-2.68-6.64-2.68-10.64s.89-7.55,2.68-10.64c1.79-3.09,4.29-5.52,7.52-7.28,3.23-1.76,6.97-2.64,11.24-2.64s8.16.88,11.36,2.64c3.2,1.76,5.69,4.19,7.48,7.28,1.79,3.09,2.68,6.64,2.68,10.64s-.89,7.55-2.68,10.64c-1.79,3.09-4.28,5.52-7.48,7.28-3.2,1.76-6.99,2.64-11.36,2.64ZM768.44,80.78c5.49,0,9.52-1.37,12.08-4.12,2.56-2.75,3.84-6.52,3.84-11.32s-1.28-8.57-3.84-11.32c-2.56-2.75-6.59-4.12-12.08-4.12s-9.37,1.37-11.96,4.12c-2.59,2.75-3.88,6.52-3.88,11.32s1.29,8.57,3.88,11.32c2.59,2.75,6.57,4.12,11.96,4.12Z"/>
      <path class="cls-2" d="M803.16,85.1h-5.68v-39.52h5.12v11.12l.56.4v28ZM803.16,63.66h-1.6v-7.28h1.44c.37-2.13,1.13-4.08,2.28-5.84,1.15-1.76,2.68-3.16,4.6-4.2s4.27-1.56,7.04-1.56c3.04,0,5.53.67,7.48,2,1.95,1.33,3.37,3.07,4.28,5.2.91,2.13,1.36,4.43,1.36,6.88v3.92h-5.68v-3.04c0-3.36-.75-5.87-2.24-7.52-1.49-1.65-3.97-2.48-7.44-2.48-4,0-6.92,1.2-8.76,3.6-1.84,2.4-2.76,5.84-2.76,10.32Z"/>
      <path class="cls-2" d="M860.84,50.46h-28.48v-4.88h28.48v4.88ZM860.84,85.1h-8.56c-3.95,0-7.08-.93-9.4-2.8-2.32-1.87-3.48-5.12-3.48-9.76v-36.4h5.76v36.72c0,2.77.69,4.64,2.08,5.6,1.38.96,3.52,1.44,6.4,1.44h7.2v5.2Z"/>
    </g>
  </g>
</svg>